<?xml version="1.0" standalone="no"?>
<!DOCTYPE svg PUBLIC "-//W3C//DTD SVG 20010904//EN"
 "http://www.w3.org/TR/2001/REC-SVG-20010904/DTD/svg10.dtd">
<svg version="1.0" xmlns="http://www.w3.org/2000/svg"
 width="500.000000pt" height="500.000000pt" viewBox="0 0 500.000000 500.000000"
 preserveAspectRatio="xMidYMid meet">

<g transform="translate(0.000000,500.000000) scale(0.100000,-0.100000)"
fill="#000000" stroke="none">
<path d="M2090 3874 c-66 -21 -205 -99 -202 -114 1 -7 -11 -33 -28 -59 -52
-81 -30 -130 24 -52 26 36 90 85 149 112 20 9 24 15 15 21 -9 6 -7 10 9 14 13
4 20 10 17 15 -3 5 1 9 8 9 8 0 31 16 51 35 41 39 32 43 -43 19z"/>
<path d="M2410 3880 c0 -5 5 -10 10 -10 6 0 10 5 10 10 0 6 -4 10 -10 10 -5 0
-10 -4 -10 -10z"/>
<path d="M2720 3801 c0 -9 27 -41 35 -41 2 0 -2 11 -8 25 -12 25 -27 34 -27
16z"/>
<path d="M2465 3789 c-11 -6 -31 -26 -45 -44 -14 -19 -32 -35 -41 -35 -25 0
-42 -27 -35 -55 6 -22 9 -23 33 -14 14 5 27 8 28 7 1 -2 8 -13 14 -25 25 -48
70 -11 62 50 -3 24 25 67 44 67 18 0 19 -5 3 -29 -17 -28 5 -51 51 -52 23 -1
28 -3 14 -6 -13 -2 -23 -11 -23 -18 0 -8 -6 -18 -14 -22 -7 -4 -15 -14 -18
-22 -5 -16 -73 -24 -121 -15 -22 5 -26 10 -22 25 4 10 2 19 -3 19 -17 0 -21
-12 -12 -35 7 -20 5 -24 -15 -29 -14 -4 -41 -17 -60 -30 -20 -14 -49 -31 -65
-38 -32 -14 -39 -28 -15 -28 17 0 31 -43 19 -61 -5 -9 -2 -10 12 -5 218 84
518 162 697 181 37 4 70 12 74 18 10 16 -143 158 -162 151 -8 -4 -23 0 -33 7
-9 7 -6 1 8 -15 24 -28 24 -28 3 -17 -13 6 -23 10 -23 7 0 -3 -14 -1 -30 4
-21 6 -44 4 -72 -6 -53 -18 -61 -18 -89 7 -21 18 -21 20 -4 14 55 -19 61 -20
46 -2 -8 10 -33 22 -58 28 -24 6 -46 15 -49 20 -7 12 -74 10 -99 -2z m443
-114 c-3 -3 -9 2 -12 12 -6 14 -5 15 5 6 7 -7 10 -15 7 -18z"/>
<path d="M2088 3747 c-30 -12 -37 -27 -13 -27 20 0 65 22 65 32 0 10 -18 9
-52 -5z"/>
<path d="M1745 3650 c-17 -19 -16 -21 17 -24 6 -1 13 9 14 22 5 27 -7 28 -31
2z"/>
<path d="M2203 3614 c-4 -10 0 -22 11 -30 14 -10 15 -16 6 -33 -14 -27 -6 -41
20 -34 36 9 42 28 18 54 -13 14 -23 31 -23 38 0 21 -24 25 -32 5z"/>
<path d="M1727 3592 c-19 -20 -23 -37 -7 -27 10 6 33 45 27 45 -2 0 -11 -8
-20 -18z"/>
<path d="M1689 3583 c-13 -16 -12 -17 4 -4 9 7 17 15 17 17 0 8 -8 3 -21 -13z"/>
<path d="M2155 3558 c-16 -24 -7 -35 20 -24 16 6 21 46 6 46 -6 0 -17 -10 -26
-22z"/>
<path d="M2910 3554 c-356 -51 -842 -233 -1194 -447 -576 -349 -814 -753 -544
-923 35 -23 138 -68 138 -61 0 2 -20 18 -45 37 -27 21 -55 53 -70 84 -167 335
534 923 1397 1172 360 103 727 117 913 35 49 -22 120 -83 147 -126 l18 -30 0
29 c0 16 -9 49 -21 73 -36 75 -127 130 -262 159 -86 18 -345 17 -477 -2z"/>
<path d="M1669 3509 c-9 -13 -26 -50 -40 -83 -20 -50 -25 -55 -30 -35 -5 23
-6 22 -21 -12 -25 -58 -48 -160 -54 -244 -4 -59 -3 -76 5 -65 10 13 12 13 21
0 7 -11 10 -7 10 18 0 78 42 189 84 223 20 16 16 57 -4 44 -5 -3 -10 -2 -10 3
0 5 20 26 45 47 42 34 45 39 43 80 -2 31 -6 41 -15 34 -7 -7 -12 -6 -15 2 -2
7 -10 2 -19 -12z"/>
<path d="M2995 3478 c-95 -10 -289 -49 -398 -79 l-77 -21 27 -52 c36 -66 75
-69 48 -3 -6 13 -2 17 18 17 18 0 28 -7 33 -22 8 -28 40 -59 57 -57 6 1 27 1
45 0 38 -1 43 -25 15 -72 -17 -28 -16 -30 5 -56 13 -16 34 -53 48 -83 64 -139
65 -140 91 -140 31 0 123 87 123 116 -1 30 -28 60 -42 46 -14 -14 -58 29 -58
59 0 24 15 25 32 0 15 -20 69 -51 92 -51 8 0 26 -10 40 -22 20 -18 27 -37 34
-93 8 -70 9 -70 17 -30 10 51 34 109 42 101 3 -3 6 -34 6 -68 0 -58 0 -60 8
-23 13 64 10 207 -5 287 -24 123 -81 260 -109 257 -6 -1 -48 -6 -92 -11z"/>
<path d="M1696 3395 c-4 -13 -2 -14 14 -5 23 13 26 20 6 20 -8 0 -16 -7 -20
-15z"/>
<path d="M2180 3380 c0 -5 6 -10 14 -10 8 0 18 5 21 10 3 6 -3 10 -14 10 -12
0 -21 -4 -21 -10z"/>
<path d="M2460 3353 c0 -4 12 -16 26 -27 26 -18 26 -18 22 5 -2 16 -11 25 -25
27 -13 2 -23 0 -23 -5z"/>
<path d="M2252 3254 c-13 -9 -31 -13 -43 -9 -16 5 -30 -2 -55 -26 -19 -18 -34
-39 -34 -46 0 -7 -25 -40 -55 -74 l-56 -62 7 -71 c11 -113 39 -150 140 -184
51 -17 68 -18 102 -9 32 8 47 8 69 -3 15 -8 37 -14 48 -15 16 0 21 -9 25 -46
3 -26 11 -54 19 -62 8 -10 12 -42 11 -89 -2 -67 9 -114 39 -168 15 -27 78 -32
124 -11 43 20 107 74 107 89 0 5 20 29 44 53 35 36 46 55 51 93 6 39 19 61 65
115 57 67 72 89 90 135 l10 26 -32 -16 c-31 -16 -31 -16 -65 21 -37 41 -55 72
-73 130 -7 22 -23 66 -37 97 -23 53 -27 57 -52 52 -15 -3 -45 1 -65 10 -48 20
-66 20 -66 2 0 -27 -18 -26 -89 7 -56 26 -70 36 -71 55 0 21 -4 22 -68 22 -45
0 -75 -5 -90 -16z"/>
<path d="M1550 2867 c0 -27 41 -132 76 -196 70 -127 189 -251 309 -321 l40
-23 -36 31 c-38 33 -54 67 -37 78 5 3 7 15 5 26 -4 13 2 22 18 30 21 9 22 16
21 87 -1 42 -5 82 -9 88 -4 6 -29 19 -55 29 -26 10 -58 24 -71 31 -14 6 -28
10 -33 7 -4 -3 -8 4 -8 14 0 12 -22 36 -55 62 -30 23 -55 46 -55 51 0 16 -52
23 -61 8 -6 -11 -11 -11 -21 -1 -16 16 -28 15 -28 -1z"/>
<path d="M1644 2270 c-61 -19 -127 -73 -154 -125 -34 -67 -36 -189 -3 -251 26
-49 80 -98 131 -120 42 -18 143 -23 215 -11 l47 8 0 118 c0 78 4 121 12 129 9
9 0 12 -41 12 -48 0 -51 -1 -37 -16 12 -12 16 -38 16 -115 0 -98 0 -100 -26
-109 -39 -15 -105 -11 -149 9 -52 24 -121 99 -134 147 -29 104 4 217 77 267
77 54 194 56 242 5 l20 -22 0 31 c0 20 -6 33 -17 38 -30 12 -166 15 -199 5z"/>
<path d="M2249 2241 c-24 -24 -29 -38 -29 -75 0 -38 6 -52 35 -85 l35 -38 -40
-27 c-22 -14 -47 -40 -56 -57 -21 -42 -21 -111 0 -143 54 -83 214 -76 289 13
l25 30 61 -46 c47 -35 73 -47 109 -50 l47 -5 -45 30 c-25 16 -67 50 -94 74
-49 43 -49 44 -34 73 9 17 24 66 33 110 10 44 22 86 28 93 7 9 1 12 -27 12
-33 0 -35 -2 -24 -19 14 -23 1 -111 -26 -175 -15 -35 -18 -38 -34 -25 -9 8
-43 36 -74 63 l-58 47 30 25 c90 76 45 204 -72 204 -41 0 -54 -5 -79 -29z
m126 -14 c18 -15 28 -36 32 -64 5 -38 2 -45 -27 -74 l-32 -33 -44 46 c-33 36
-44 55 -44 79 0 65 63 91 115 46z m28 -278 c83 -68 86 -72 72 -92 -24 -34 -95
-77 -129 -77 -60 0 -126 62 -126 120 0 31 26 75 57 99 15 11 30 21 33 21 3 0
45 -32 93 -71z"/>
<path d="M2998 2258 c9 -9 12 -77 12 -245 0 -210 -2 -233 -17 -242 -14 -8 -4
-10 40 -11 53 0 57 1 43 16 -13 12 -16 39 -16 130 l0 114 80 0 c65 0 81 -3 89
-17 8 -14 10 -7 10 32 0 39 -2 46 -10 33 -8 -15 -24 -18 -89 -18 l-80 0 0 100
0 100 88 0 c88 0 114 -8 125 -40 3 -8 6 2 6 23 l1 37 -147 0 c-114 0 -144 -3
-135 -12z"/>
<path d="M825 1540 c-4 -7 557 -10 1674 -10 1114 0 1681 3 1681 10 0 14 -3346
14 -3355 0z"/>
<path d="M1180 1240 c0 -53 4 -90 10 -90 6 0 10 37 10 90 0 53 -4 90 -10 90
-6 0 -10 -37 -10 -90z"/>
<path d="M2610 1293 c0 -29 -3 -34 -12 -25 -30 30 -78 0 -78 -49 0 -54 15 -69
65 -67 l45 2 0 88 c0 52 -4 88 -10 88 -5 0 -10 -17 -10 -37z m-16 -36 c22 -16
18 -75 -6 -91 -37 -23 -69 52 -38 89 15 18 21 19 44 2z"/>
<path d="M3614 1240 c0 -52 1 -74 3 -47 2 26 2 68 0 95 -2 26 -3 4 -3 -48z"/>
<path d="M862 1308 c-26 -26 -4 -67 45 -82 51 -16 25 -72 -28 -61 -18 4 -29 2
-29 -4 0 -16 76 -13 90 3 21 27 8 60 -32 79 -61 28 -45 77 19 61 18 -5 24 -3
19 5 -9 15 -69 14 -84 -1z"/>
<path d="M1545 1310 c3 -5 8 -10 11 -10 2 0 4 5 4 10 0 6 -5 10 -11 10 -5 0
-7 -4 -4 -10z"/>
<path d="M2800 1300 c-14 -14 -20 -33 -20 -65 0 -56 25 -85 74 -85 19 0 38 5
42 11 4 8 -3 9 -23 5 -44 -10 -75 19 -75 69 0 49 32 80 74 71 15 -3 28 -1 28
4 0 19 -79 11 -100 -10z"/>
<path d="M3800 1309 c0 -5 5 -7 10 -4 6 3 10 8 10 11 0 2 -4 4 -10 4 -5 0 -10
-5 -10 -11z"/>
<path d="M3696 1295 c-12 -25 -7 -116 6 -132 6 -7 20 -13 32 -12 21 0 21 0 -1
9 -19 8 -23 17 -23 54 0 36 4 45 23 51 l22 8 -22 4 c-12 2 -23 12 -25 21 -3
15 -5 14 -12 -3z"/>
<path d="M1432 1280 c-7 -11 -8 -20 -3 -20 6 0 11 -24 13 -52 3 -48 5 -53 28
-56 22 -2 23 -1 8 8 -24 14 -26 100 -3 100 8 0 15 5 15 10 0 6 -7 10 -15 10
-8 0 -15 5 -15 10 0 17 -14 11 -28 -10z"/>
<path d="M1028 1269 c-26 -15 -25 -95 1 -109 65 -34 119 36 75 98 -16 23 -48
28 -76 11z m72 -52 c0 -52 -33 -73 -64 -41 -23 22 -20 60 6 78 31 22 58 4 58
-37z"/>
<path d="M1260 1234 c0 -69 12 -84 65 -82 l45 2 0 63 c0 35 -4 63 -10 63 -5 0
-10 -22 -10 -49 0 -95 -62 -97 -68 -2 -4 63 -22 68 -22 5z"/>
<path d="M1547 1273 c-11 -10 -8 -123 3 -123 6 0 10 28 10 65 0 65 -1 71 -13
58z"/>
<path d="M1640 1260 c-39 -39 -14 -110 40 -110 33 0 60 31 60 67 0 28 -33 63
-60 63 -11 0 -29 -9 -40 -20z m64 -6 c9 -8 16 -26 16 -39 0 -21 -23 -55 -36
-55 -22 0 -44 25 -44 50 0 27 22 60 40 60 5 0 16 -7 24 -16z"/>
<path d="M1800 1213 c0 -36 4 -63 10 -63 6 0 10 22 10 50 0 38 4 52 19 59 30
16 50 -7 54 -64 3 -48 3 -47 5 13 2 67 4 65 -60 66 l-38 1 0 -62z"/>
<path d="M1972 1268 c-21 -21 -13 -38 23 -55 45 -22 43 -49 -3 -47 -17 1 -29
-2 -26 -7 9 -14 60 -10 74 6 17 21 5 44 -30 56 -48 17 -39 45 13 40 9 -1 17 3
17 8 0 15 -53 14 -68 -1z"/>
<path d="M2210 1269 c-12 -8 -9 -9 11 -5 17 4 31 0 39 -9 16 -19 10 -26 -32
-34 -28 -6 -33 -11 -33 -36 0 -24 5 -31 23 -33 13 -2 30 2 38 8 10 9 14 9 14
1 0 -6 5 -11 10 -11 13 0 13 71 0 104 -10 28 -43 35 -70 15z m60 -74 c0 -8
-10 -19 -21 -26 -17 -9 -25 -8 -36 4 -21 20 -8 37 28 37 19 0 29 -5 29 -15z"/>
<path d="M2350 1216 c0 -37 4 -66 10 -66 6 0 10 22 10 50 0 37 4 52 18 59 33
17 52 -5 52 -59 0 -28 5 -50 10 -50 13 0 13 86 0 111 -11 20 -54 26 -65 9 -5
-8 -11 -7 -21 1 -12 10 -14 1 -14 -55z"/>
<path d="M2967 1262 c-35 -38 -10 -112 37 -112 38 0 56 19 56 60 0 63 -55 94
-93 52z m80 -28 c16 -42 -30 -90 -62 -64 -21 17 -19 77 2 89 20 11 51 -2 60
-25z"/>
<path d="M3132 1215 c1 -67 1 -68 7 -21 7 50 31 79 57 69 10 -3 14 -22 14 -59
0 -30 5 -54 10 -54 6 0 10 24 10 54 0 66 -17 85 -60 69 -21 -8 -30 -8 -34 1
-2 6 -4 -20 -4 -59z"/>
<path d="M3302 1268 c-21 -21 -13 -38 23 -55 45 -22 43 -49 -3 -47 -18 1 -32
-2 -32 -7 0 -15 67 -10 80 6 18 21 5 44 -30 57 -40 14 -37 44 4 40 17 -2 25 1
21 7 -8 15 -48 14 -63 -1z"/>
<path d="M3430 1234 c0 -69 12 -84 65 -82 l45 2 0 63 c0 35 -4 63 -10 63 -5 0
-10 -22 -10 -49 0 -95 -62 -97 -68 -2 -4 63 -22 68 -22 5z"/>
<path d="M3800 1215 c0 -37 4 -65 10 -65 6 0 10 28 10 65 0 37 -4 65 -10 65
-6 0 -10 -28 -10 -65z"/>
<path d="M3887 1274 c-10 -11 -8 -124 2 -124 5 0 11 24 13 53 5 52 -2 83 -15
71z"/>
<path d="M3914 1268 c-5 -8 -2 -9 9 -5 35 13 47 -3 47 -59 0 -30 5 -54 10 -54
14 0 12 104 -2 118 -15 15 -55 16 -64 0z"/>
<path d="M4062 1268 c-15 -15 -16 -45 -2 -53 11 -7 6 -34 -12 -73 -15 -30 1
-46 47 -46 73 0 86 63 16 74 -41 6 -44 23 -6 30 24 4 31 11 33 35 2 16 9 33
15 37 7 4 -8 8 -33 8 -26 0 -51 -5 -58 -12z m58 -13 c17 -20 5 -45 -20 -45
-23 0 -35 22 -26 45 7 19 30 19 46 0z m18 -122 c-2 -13 -14 -19 -41 -21 -32
-3 -37 0 -37 17 0 18 6 21 41 21 33 0 40 -3 37 -17z"/>
</g>
</svg>
